<svg width="80" height="78" viewBox="0 0 80 78" fill="none" xmlns="http://www.w3.org/2000/svg">
<rect width="80" height="78" rx="17" fill="#A885D7"/>
<rect x="7" y="66" width="67" height="12" rx="6" fill="#474747"/>
<rect x="7" y="53" width="67" height="11" rx="5.5" fill="#474747"/>
<rect x="7" y="40" width="67" height="11" rx="5.5" fill="#474747"/>
<rect x="10" y="42" width="62" height="7" rx="3.5" fill="white"/>
<rect x="7" y="53" width="67" height="11" rx="5.5" fill="#474747"/>
<rect x="10" y="55" width="62" height="7" rx="3.5" fill="white"/>
<rect x="7" y="27" width="67" height="11" rx="5.5" fill="#474747"/>
<rect x="7" y="14" width="67" height="11" rx="5.5" fill="#474747"/>
<rect x="7" width="67" height="12" rx="6" fill="#474747"/>
<rect x="7" y="27" width="67" height="11" rx="5.5" fill="#474747"/>
<rect x="10" y="29" width="62" height="7" rx="3.5" fill="white"/>
<rect x="7" y="14" width="67" height="11" rx="5.5" fill="#474747"/>
<rect x="10" y="16" width="62" height="7" rx="3.5" fill="white"/>
<circle cx="40.3153" cy="39.3153" r="19.3153" fill="#474747"/>
<circle cx="40.3153" cy="39.3153" r="15.4523" fill="#A885D7"/>
<rect x="37.2249" y="29.2714" width="4.63568" height="12.3618" rx="2.31784" fill="white"/>
<rect x="36.4521" y="39.62" width="4.63568" height="13.907" rx="2.31784" transform="rotate(-47.0866 36.4521 39.62)" fill="white"/>
</svg>
